<mxfile host="app.diagrams.net" modified="2022-10-19T08:09:48.365Z" agent="5.0 (Windows NT 10.0; Win64; x64) AppleWebKit/537.36 (KHTML, like Gecko) Chrome/103.0.0.0 Safari/537.36" etag="RwRxeGBzzHCEgX03EOdU" version="20.4.1" type="github">
  <diagram id="C5RBs43oDa-KdzZeNtuy" name="Page-1">
    <mxGraphModel dx="2370" dy="1270" grid="0" gridSize="10" guides="1" tooltips="1" connect="1" arrows="1" fold="1" page="1" pageScale="1" pageWidth="3300" pageHeight="4681" math="0" shadow="0">
      <root>
        <mxCell id="WIyWlLk6GJQsqaUBKTNV-0" />
        <mxCell id="WIyWlLk6GJQsqaUBKTNV-1" parent="WIyWlLk6GJQsqaUBKTNV-0" />
        <mxCell id="zmsMu-Lmof0BKxTjrPye-1" value="&lt;font style=&quot;font-size: 20px;&quot;&gt;从头开始查&lt;/font&gt;&lt;span style=&quot;font-size: 19px;&quot;&gt;空闲分区链表&lt;/span&gt;" style="rounded=1;whiteSpace=wrap;html=1;" vertex="1" parent="WIyWlLk6GJQsqaUBKTNV-1">
          <mxGeometry x="280" y="40" width="240" height="40" as="geometry" />
        </mxCell>
        <mxCell id="zmsMu-Lmof0BKxTjrPye-5" value="检索完成？" style="rhombus;whiteSpace=wrap;html=1;fontSize=19;" vertex="1" parent="WIyWlLk6GJQsqaUBKTNV-1">
          <mxGeometry x="280" y="120" width="240" height="80" as="geometry" />
        </mxCell>
        <mxCell id="zmsMu-Lmof0BKxTjrPye-6" value="" style="endArrow=classic;html=1;rounded=0;fontSize=19;exitX=1;exitY=0.5;exitDx=0;exitDy=0;" edge="1" parent="WIyWlLk6GJQsqaUBKTNV-1" source="zmsMu-Lmof0BKxTjrPye-5">
          <mxGeometry width="50" height="50" relative="1" as="geometry">
            <mxPoint x="270" y="420" as="sourcePoint" />
            <mxPoint x="600" y="160" as="targetPoint" />
          </mxGeometry>
        </mxCell>
        <mxCell id="zmsMu-Lmof0BKxTjrPye-7" value="" style="endArrow=classic;html=1;rounded=0;fontSize=19;exitX=0.5;exitY=1;exitDx=0;exitDy=0;entryX=0.5;entryY=0;entryDx=0;entryDy=0;" edge="1" parent="WIyWlLk6GJQsqaUBKTNV-1" source="zmsMu-Lmof0BKxTjrPye-1" target="zmsMu-Lmof0BKxTjrPye-5">
          <mxGeometry width="50" height="50" relative="1" as="geometry">
            <mxPoint x="270" y="420" as="sourcePoint" />
            <mxPoint x="320" y="370" as="targetPoint" />
          </mxGeometry>
        </mxCell>
        <mxCell id="zmsMu-Lmof0BKxTjrPye-8" value="N" style="text;html=1;strokeColor=none;fillColor=none;align=center;verticalAlign=middle;whiteSpace=wrap;rounded=0;fontSize=19;" vertex="1" parent="WIyWlLk6GJQsqaUBKTNV-1">
          <mxGeometry x="115" y="380" width="30" height="30" as="geometry" />
        </mxCell>
        <mxCell id="zmsMu-Lmof0BKxTjrPye-9" value="Y" style="text;html=1;strokeColor=none;fillColor=none;align=center;verticalAlign=middle;whiteSpace=wrap;rounded=0;fontSize=19;" vertex="1" parent="WIyWlLk6GJQsqaUBKTNV-1">
          <mxGeometry x="115" y="420" width="30" height="30" as="geometry" />
        </mxCell>
        <mxCell id="zmsMu-Lmof0BKxTjrPye-10" value="Y" style="text;html=1;strokeColor=none;fillColor=none;align=center;verticalAlign=middle;whiteSpace=wrap;rounded=0;fontSize=19;" vertex="1" parent="WIyWlLk6GJQsqaUBKTNV-1">
          <mxGeometry x="530" y="130" width="60" height="30" as="geometry" />
        </mxCell>
        <mxCell id="zmsMu-Lmof0BKxTjrPye-11" value="返回" style="rounded=1;whiteSpace=wrap;html=1;fontSize=19;" vertex="1" parent="WIyWlLk6GJQsqaUBKTNV-1">
          <mxGeometry x="600" y="140" width="80" height="40" as="geometry" />
        </mxCell>
        <mxCell id="zmsMu-Lmof0BKxTjrPye-12" value="" style="endArrow=classic;html=1;rounded=0;fontSize=19;exitX=0.5;exitY=1;exitDx=0;exitDy=0;entryX=0.5;entryY=0;entryDx=0;entryDy=0;" edge="1" parent="WIyWlLk6GJQsqaUBKTNV-1">
          <mxGeometry width="50" height="50" relative="1" as="geometry">
            <mxPoint x="399.5" y="200" as="sourcePoint" />
            <mxPoint x="399.5" y="240" as="targetPoint" />
          </mxGeometry>
        </mxCell>
        <mxCell id="zmsMu-Lmof0BKxTjrPye-14" value="m.size&amp;gt;u.size?" style="rhombus;whiteSpace=wrap;html=1;fontSize=19;" vertex="1" parent="WIyWlLk6GJQsqaUBKTNV-1">
          <mxGeometry x="280" y="240" width="240" height="80" as="geometry" />
        </mxCell>
        <mxCell id="zmsMu-Lmof0BKxTjrPye-15" value="" style="endArrow=classic;html=1;rounded=0;fontSize=19;exitX=1;exitY=0.5;exitDx=0;exitDy=0;" edge="1" parent="WIyWlLk6GJQsqaUBKTNV-1">
          <mxGeometry width="50" height="50" relative="1" as="geometry">
            <mxPoint x="520" y="280" as="sourcePoint" />
            <mxPoint x="600" y="280" as="targetPoint" />
          </mxGeometry>
        </mxCell>
        <mxCell id="zmsMu-Lmof0BKxTjrPye-16" value="Y" style="text;html=1;strokeColor=none;fillColor=none;align=center;verticalAlign=middle;whiteSpace=wrap;rounded=0;fontSize=19;" vertex="1" parent="WIyWlLk6GJQsqaUBKTNV-1">
          <mxGeometry x="530" y="250" width="60" height="30" as="geometry" />
        </mxCell>
        <mxCell id="zmsMu-Lmof0BKxTjrPye-17" value="继续查询下一个表项" style="rounded=0;whiteSpace=wrap;html=1;fontSize=19;" vertex="1" parent="WIyWlLk6GJQsqaUBKTNV-1">
          <mxGeometry x="600" y="260" width="190" height="40" as="geometry" />
        </mxCell>
        <mxCell id="zmsMu-Lmof0BKxTjrPye-18" value="" style="endArrow=classic;html=1;rounded=0;fontSize=19;exitX=1;exitY=0.5;exitDx=0;exitDy=0;entryX=1;entryY=0.5;entryDx=0;entryDy=0;" edge="1" parent="WIyWlLk6GJQsqaUBKTNV-1" source="zmsMu-Lmof0BKxTjrPye-17" target="zmsMu-Lmof0BKxTjrPye-1">
          <mxGeometry width="50" height="50" relative="1" as="geometry">
            <mxPoint x="270" y="410" as="sourcePoint" />
            <mxPoint x="840" y="60" as="targetPoint" />
            <Array as="points">
              <mxPoint x="840" y="280" />
              <mxPoint x="840" y="60" />
            </Array>
          </mxGeometry>
        </mxCell>
        <mxCell id="zmsMu-Lmof0BKxTjrPye-19" value="" style="endArrow=classic;html=1;rounded=0;fontSize=19;exitX=0.5;exitY=1;exitDx=0;exitDy=0;entryX=0.5;entryY=0;entryDx=0;entryDy=0;" edge="1" parent="WIyWlLk6GJQsqaUBKTNV-1">
          <mxGeometry width="50" height="50" relative="1" as="geometry">
            <mxPoint x="400" y="320" as="sourcePoint" />
            <mxPoint x="400" y="360" as="targetPoint" />
          </mxGeometry>
        </mxCell>
        <mxCell id="zmsMu-Lmof0BKxTjrPye-21" value="Y" style="text;html=1;strokeColor=none;fillColor=none;align=center;verticalAlign=middle;whiteSpace=wrap;rounded=0;fontSize=19;" vertex="1" parent="WIyWlLk6GJQsqaUBKTNV-1">
          <mxGeometry x="405" y="330" width="30" height="30" as="geometry" />
        </mxCell>
        <mxCell id="zmsMu-Lmof0BKxTjrPye-22" value="N" style="text;html=1;strokeColor=none;fillColor=none;align=center;verticalAlign=middle;whiteSpace=wrap;rounded=0;fontSize=19;" vertex="1" parent="WIyWlLk6GJQsqaUBKTNV-1">
          <mxGeometry x="405" y="210" width="30" height="30" as="geometry" />
        </mxCell>
        <mxCell id="zmsMu-Lmof0BKxTjrPye-23" value="m.size-u.size&amp;lt;=size?" style="rhombus;whiteSpace=wrap;html=1;fontSize=19;" vertex="1" parent="WIyWlLk6GJQsqaUBKTNV-1">
          <mxGeometry x="280" y="360" width="240" height="80" as="geometry" />
        </mxCell>
        <mxCell id="zmsMu-Lmof0BKxTjrPye-24" value="" style="endArrow=classic;html=1;rounded=0;fontSize=19;exitX=1;exitY=0.5;exitDx=0;exitDy=0;entryX=0.5;entryY=0;entryDx=0;entryDy=0;" edge="1" parent="WIyWlLk6GJQsqaUBKTNV-1" source="zmsMu-Lmof0BKxTjrPye-23" target="zmsMu-Lmof0BKxTjrPye-25">
          <mxGeometry width="50" height="50" relative="1" as="geometry">
            <mxPoint x="270" y="410" as="sourcePoint" />
            <mxPoint x="680" y="480" as="targetPoint" />
            <Array as="points">
              <mxPoint x="695" y="400" />
            </Array>
          </mxGeometry>
        </mxCell>
        <mxCell id="zmsMu-Lmof0BKxTjrPye-25" value="继续查询下一个表项" style="rounded=0;whiteSpace=wrap;html=1;fontSize=19;" vertex="1" parent="WIyWlLk6GJQsqaUBKTNV-1">
          <mxGeometry x="600" y="490" width="190" height="40" as="geometry" />
        </mxCell>
        <mxCell id="zmsMu-Lmof0BKxTjrPye-26" value="Y" style="text;html=1;strokeColor=none;fillColor=none;align=center;verticalAlign=middle;whiteSpace=wrap;rounded=0;fontSize=19;" vertex="1" parent="WIyWlLk6GJQsqaUBKTNV-1">
          <mxGeometry x="590" y="370" width="30" height="30" as="geometry" />
        </mxCell>
        <mxCell id="zmsMu-Lmof0BKxTjrPye-27" value="" style="endArrow=classic;html=1;rounded=0;fontSize=19;exitX=0.5;exitY=1;exitDx=0;exitDy=0;entryX=0.5;entryY=0;entryDx=0;entryDy=0;" edge="1" parent="WIyWlLk6GJQsqaUBKTNV-1">
          <mxGeometry width="50" height="50" relative="1" as="geometry">
            <mxPoint x="399.5" y="440" as="sourcePoint" />
            <mxPoint x="399.5" y="480" as="targetPoint" />
          </mxGeometry>
        </mxCell>
        <mxCell id="zmsMu-Lmof0BKxTjrPye-28" value="N" style="text;html=1;strokeColor=none;fillColor=none;align=center;verticalAlign=middle;whiteSpace=wrap;rounded=0;fontSize=19;" vertex="1" parent="WIyWlLk6GJQsqaUBKTNV-1">
          <mxGeometry x="405" y="450" width="30" height="30" as="geometry" />
        </mxCell>
        <mxCell id="zmsMu-Lmof0BKxTjrPye-29" value="从该分区划出u.size大小的分区" style="rounded=0;whiteSpace=wrap;html=1;fontSize=19;" vertex="1" parent="WIyWlLk6GJQsqaUBKTNV-1">
          <mxGeometry x="305" y="480" width="195" height="50" as="geometry" />
        </mxCell>
        <mxCell id="zmsMu-Lmof0BKxTjrPye-32" value="" style="endArrow=classic;html=1;rounded=0;fontSize=19;exitX=0.5;exitY=1;exitDx=0;exitDy=0;entryX=0.5;entryY=0;entryDx=0;entryDy=0;" edge="1" parent="WIyWlLk6GJQsqaUBKTNV-1">
          <mxGeometry width="50" height="50" relative="1" as="geometry">
            <mxPoint x="399.5" y="530" as="sourcePoint" />
            <mxPoint x="399.5" y="570" as="targetPoint" />
          </mxGeometry>
        </mxCell>
        <mxCell id="zmsMu-Lmof0BKxTjrPye-33" value="" style="endArrow=classic;html=1;rounded=0;fontSize=19;exitX=0.5;exitY=1;exitDx=0;exitDy=0;" edge="1" parent="WIyWlLk6GJQsqaUBKTNV-1" source="zmsMu-Lmof0BKxTjrPye-25">
          <mxGeometry width="50" height="50" relative="1" as="geometry">
            <mxPoint x="530" y="410" as="sourcePoint" />
            <mxPoint x="400" y="550" as="targetPoint" />
            <Array as="points">
              <mxPoint x="695" y="550" />
            </Array>
          </mxGeometry>
        </mxCell>
        <mxCell id="zmsMu-Lmof0BKxTjrPye-34" value="将该分区分配给请求者，修改有关数据结构" style="rounded=0;whiteSpace=wrap;html=1;fontSize=19;" vertex="1" parent="WIyWlLk6GJQsqaUBKTNV-1">
          <mxGeometry x="302.5" y="570" width="195" height="50" as="geometry" />
        </mxCell>
        <mxCell id="zmsMu-Lmof0BKxTjrPye-36" value="" style="endArrow=classic;html=1;rounded=0;fontSize=19;exitX=0.5;exitY=1;exitDx=0;exitDy=0;entryX=0.5;entryY=0;entryDx=0;entryDy=0;" edge="1" parent="WIyWlLk6GJQsqaUBKTNV-1">
          <mxGeometry width="50" height="50" relative="1" as="geometry">
            <mxPoint x="399.5" y="620" as="sourcePoint" />
            <mxPoint x="399.5" y="660" as="targetPoint" />
          </mxGeometry>
        </mxCell>
        <mxCell id="zmsMu-Lmof0BKxTjrPye-37" value="返回" style="rounded=1;whiteSpace=wrap;html=1;fontSize=19;" vertex="1" parent="WIyWlLk6GJQsqaUBKTNV-1">
          <mxGeometry x="360" y="660" width="80" height="40" as="geometry" />
        </mxCell>
        <mxCell id="zmsMu-Lmof0BKxTjrPye-38" value="&lt;span style=&quot;font-size: 20px;&quot;&gt;CycleFirstFit&lt;/span&gt;" style="rounded=1;whiteSpace=wrap;html=1;" vertex="1" parent="WIyWlLk6GJQsqaUBKTNV-1">
          <mxGeometry x="280" y="760" width="240" height="40" as="geometry" />
        </mxCell>
        <mxCell id="zmsMu-Lmof0BKxTjrPye-39" value="" style="endArrow=classic;html=1;rounded=0;fontSize=19;exitX=0.5;exitY=1;exitDx=0;exitDy=0;entryX=0.5;entryY=0;entryDx=0;entryDy=0;" edge="1" parent="WIyWlLk6GJQsqaUBKTNV-1">
          <mxGeometry width="50" height="50" relative="1" as="geometry">
            <mxPoint x="40" y="860" as="sourcePoint" />
            <mxPoint x="40" y="900" as="targetPoint" />
          </mxGeometry>
        </mxCell>
        <mxCell id="zmsMu-Lmof0BKxTjrPye-40" value="" style="endArrow=classic;html=1;rounded=0;fontSize=19;exitX=0.5;exitY=1;exitDx=0;exitDy=0;entryX=0.5;entryY=0;entryDx=0;entryDy=0;" edge="1" parent="WIyWlLk6GJQsqaUBKTNV-1" source="zmsMu-Lmof0BKxTjrPye-38">
          <mxGeometry width="50" height="50" relative="1" as="geometry">
            <mxPoint x="399.71000000000004" y="800" as="sourcePoint" />
            <mxPoint x="399.71000000000004" y="840" as="targetPoint" />
          </mxGeometry>
        </mxCell>
        <mxCell id="zmsMu-Lmof0BKxTjrPye-42" value="是否有新请求？" style="rhombus;whiteSpace=wrap;html=1;fontSize=19;" vertex="1" parent="WIyWlLk6GJQsqaUBKTNV-1">
          <mxGeometry x="280" y="840" width="240" height="80" as="geometry" />
        </mxCell>
        <mxCell id="zmsMu-Lmof0BKxTjrPye-43" value="" style="endArrow=classic;html=1;rounded=0;fontSize=19;exitX=1;exitY=0.5;exitDx=0;exitDy=0;" edge="1" parent="WIyWlLk6GJQsqaUBKTNV-1">
          <mxGeometry width="50" height="50" relative="1" as="geometry">
            <mxPoint x="520.0000000000005" y="880" as="sourcePoint" />
            <mxPoint x="599.9999999999995" y="880" as="targetPoint" />
          </mxGeometry>
        </mxCell>
        <mxCell id="zmsMu-Lmof0BKxTjrPye-45" value="返回" style="rounded=1;whiteSpace=wrap;html=1;fontSize=19;" vertex="1" parent="WIyWlLk6GJQsqaUBKTNV-1">
          <mxGeometry x="600" y="860" width="80" height="40" as="geometry" />
        </mxCell>
        <mxCell id="zmsMu-Lmof0BKxTjrPye-46" value="N" style="text;html=1;strokeColor=none;fillColor=none;align=center;verticalAlign=middle;whiteSpace=wrap;rounded=0;fontSize=19;" vertex="1" parent="WIyWlLk6GJQsqaUBKTNV-1">
          <mxGeometry x="40" y="950" width="30" height="30" as="geometry" />
        </mxCell>
        <mxCell id="zmsMu-Lmof0BKxTjrPye-47" value="Y" style="text;html=1;strokeColor=none;fillColor=none;align=center;verticalAlign=middle;whiteSpace=wrap;rounded=0;fontSize=19;" vertex="1" parent="WIyWlLk6GJQsqaUBKTNV-1">
          <mxGeometry x="40" y="990" width="30" height="30" as="geometry" />
        </mxCell>
        <mxCell id="zmsMu-Lmof0BKxTjrPye-48" value="N" style="text;html=1;strokeColor=none;fillColor=none;align=center;verticalAlign=middle;whiteSpace=wrap;rounded=0;fontSize=19;" vertex="1" parent="WIyWlLk6GJQsqaUBKTNV-1">
          <mxGeometry x="542.5" y="850" width="30" height="30" as="geometry" />
        </mxCell>
        <mxCell id="zmsMu-Lmof0BKxTjrPye-49" value="" style="endArrow=classic;html=1;rounded=0;fontSize=19;exitX=0.5;exitY=1;exitDx=0;exitDy=0;entryX=0.5;entryY=0;entryDx=0;entryDy=0;" edge="1" parent="WIyWlLk6GJQsqaUBKTNV-1">
          <mxGeometry width="50" height="50" relative="1" as="geometry">
            <mxPoint x="399.6600000000001" y="920" as="sourcePoint" />
            <mxPoint x="399.6600000000001" y="960" as="targetPoint" />
          </mxGeometry>
        </mxCell>
        <mxCell id="zmsMu-Lmof0BKxTjrPye-50" value="Y" style="text;html=1;strokeColor=none;fillColor=none;align=center;verticalAlign=middle;whiteSpace=wrap;rounded=0;fontSize=19;" vertex="1" parent="WIyWlLk6GJQsqaUBKTNV-1">
          <mxGeometry x="405" y="930" width="30" height="30" as="geometry" />
        </mxCell>
        <mxCell id="zmsMu-Lmof0BKxTjrPye-51" value="&lt;font style=&quot;font-size: 15px;&quot;&gt;能否为请求找到合适分区？&lt;/font&gt;" style="rhombus;whiteSpace=wrap;html=1;fontSize=19;" vertex="1" parent="WIyWlLk6GJQsqaUBKTNV-1">
          <mxGeometry x="280" y="960" width="240" height="80" as="geometry" />
        </mxCell>
        <mxCell id="zmsMu-Lmof0BKxTjrPye-52" value="" style="endArrow=classic;html=1;rounded=0;fontSize=19;exitX=1;exitY=0.5;exitDx=0;exitDy=0;entryX=1;entryY=0.5;entryDx=0;entryDy=0;" edge="1" parent="WIyWlLk6GJQsqaUBKTNV-1" target="zmsMu-Lmof0BKxTjrPye-61">
          <mxGeometry width="50" height="50" relative="1" as="geometry">
            <mxPoint x="520.0000000000005" y="1000" as="sourcePoint" />
            <mxPoint x="599.9999999999995" y="1000" as="targetPoint" />
            <Array as="points">
              <mxPoint x="600" y="1000" />
              <mxPoint x="600" y="1180" />
            </Array>
          </mxGeometry>
        </mxCell>
        <mxCell id="zmsMu-Lmof0BKxTjrPye-55" value="" style="endArrow=classic;html=1;rounded=0;fontSize=19;exitX=0.5;exitY=1;exitDx=0;exitDy=0;entryX=0.5;entryY=0;entryDx=0;entryDy=0;" edge="1" parent="WIyWlLk6GJQsqaUBKTNV-1">
          <mxGeometry width="50" height="50" relative="1" as="geometry">
            <mxPoint x="399.6600000000001" y="1040" as="sourcePoint" />
            <mxPoint x="399.6600000000001" y="1080" as="targetPoint" />
          </mxGeometry>
        </mxCell>
        <mxCell id="zmsMu-Lmof0BKxTjrPye-56" value="Y" style="text;html=1;strokeColor=none;fillColor=none;align=center;verticalAlign=middle;whiteSpace=wrap;rounded=0;fontSize=19;" vertex="1" parent="WIyWlLk6GJQsqaUBKTNV-1">
          <mxGeometry x="405" y="1050" width="30" height="30" as="geometry" />
        </mxCell>
        <mxCell id="zmsMu-Lmof0BKxTjrPye-58" value="分配分区" style="rounded=0;whiteSpace=wrap;html=1;fontSize=15;" vertex="1" parent="WIyWlLk6GJQsqaUBKTNV-1">
          <mxGeometry x="280" y="1080" width="240" height="40" as="geometry" />
        </mxCell>
        <mxCell id="zmsMu-Lmof0BKxTjrPye-59" value="" style="endArrow=classic;html=1;rounded=0;fontSize=19;exitX=0.5;exitY=1;exitDx=0;exitDy=0;entryX=0.5;entryY=0;entryDx=0;entryDy=0;" edge="1" parent="WIyWlLk6GJQsqaUBKTNV-1">
          <mxGeometry width="50" height="50" relative="1" as="geometry">
            <mxPoint x="399.6600000000001" y="1120" as="sourcePoint" />
            <mxPoint x="399.6600000000001" y="1160" as="targetPoint" />
          </mxGeometry>
        </mxCell>
        <mxCell id="zmsMu-Lmof0BKxTjrPye-61" value="回收、分区整理" style="rounded=0;whiteSpace=wrap;html=1;fontSize=15;" vertex="1" parent="WIyWlLk6GJQsqaUBKTNV-1">
          <mxGeometry x="280" y="1160" width="240" height="40" as="geometry" />
        </mxCell>
        <mxCell id="zmsMu-Lmof0BKxTjrPye-62" value="" style="endArrow=classic;html=1;rounded=0;fontSize=19;exitX=0;exitY=0.5;exitDx=0;exitDy=0;entryX=0;entryY=0.5;entryDx=0;entryDy=0;" edge="1" parent="WIyWlLk6GJQsqaUBKTNV-1" source="zmsMu-Lmof0BKxTjrPye-61" target="zmsMu-Lmof0BKxTjrPye-42">
          <mxGeometry width="50" height="50" relative="1" as="geometry">
            <mxPoint x="50" y="770" as="sourcePoint" />
            <mxPoint x="50" y="810" as="targetPoint" />
            <Array as="points">
              <mxPoint x="200" y="1180" />
              <mxPoint x="200" y="880" />
            </Array>
          </mxGeometry>
        </mxCell>
        <mxCell id="zmsMu-Lmof0BKxTjrPye-64" value="N" style="text;html=1;strokeColor=none;fillColor=none;align=center;verticalAlign=middle;whiteSpace=wrap;rounded=0;fontSize=19;" vertex="1" parent="WIyWlLk6GJQsqaUBKTNV-1">
          <mxGeometry x="545" y="970" width="30" height="30" as="geometry" />
        </mxCell>
      </root>
    </mxGraphModel>
  </diagram>
</mxfile>
